<svg xmlns="http://www.w3.org/2000/svg" viewBox="0 0 21.14 30.23"><defs><style>.cls-1{fill:#663200;}</style></defs><title>Asset 1</title><g id="Layer_2" data-name="Layer 2"><g id="Capa_1" data-name="Capa 1"><path class="cls-1" d="M20.8,3.58a4.27,4.27,0,0,0-2.64-1.39A1.79,1.79,0,0,0,14.87.9c-.1.16-.74,1.42-1.7,3.31a41.83,41.83,0,0,0-4.63-.8c-1.28-.11-3-.12-3.27,1.08-.36,1.63,2,3.65,4.81,5.8-.62,1.22-1.26,2.5-1.92,3.79-2.15-1-3.9-1.62-4.68-.82-1.08,1.12-.12,2.75,1,4.64.32.54.64,1.09.93,1.66L0,30.23,6,21a4,4,0,0,1-.81,4.5.3.3,0,0,0,0,.42l.06,0a.29.29,0,0,0,.36,0c1.71-1.76,1.52-3.7.79-5.52,1-1.6,2.13-3.28,3.22-4.93l.06,0c3.14,1.55,6.1,3,6.94,1.49s-1.49-3.51-4.29-5.68l3.81-5.85c2.45.5,4,.67,4.53.09A1.46,1.46,0,0,0,20.8,3.58ZM5.72,18.91c-.24-.45-.5-.89-.74-1.31-1-1.68-1.84-3.13-1.07-3.92.51-.53,2.2.11,4,.93ZM16.14,16.7c-.57,1-3.66-.5-6.15-1.73h0l2.06-3.16C14.46,13.68,16.74,15.63,16.14,16.7ZM10.35,9.75C7.93,7.87,5.57,5.88,5.85,4.62c.12-.54,1-.75,2.64-.61a40.2,40.2,0,0,1,4.4.75ZM15,4.61l-.27-.06c-.26-.46.67-2.8.9-3.21A.91.91,0,0,1,16.87,1a.87.87,0,0,1,.37,1.09,3.84,3.84,0,0,0-1.47.32.3.3,0,0,0-.15.4A.3.3,0,0,0,16,3a2.78,2.78,0,0,1,.81-.22A7.87,7.87,0,0,1,15,4.61Zm5.26.54c-.32.36-1.94.13-3.74-.22l1.41-2.19a3.67,3.67,0,0,1,2.37,1.2A.85.85,0,0,1,20.27,5.15Z"/></g></g></svg>