<?xml version="1.0" encoding="iso-8859-1"?>
<!-- Generator: Adobe Illustrator 18.1.1, SVG Export Plug-In . SVG Version: 6.00 Build 0)  -->
<svg version="1.1" id="Capa_1" xmlns="http://www.w3.org/2000/svg" xmlns:xlink="http://www.w3.org/1999/xlink" x="0px" y="0px"
	 viewBox="0 0 174.239 174.239" style="enable-background:new 0 0 174.239 174.239;" xml:space="preserve">
<g>
	<path d="M174.239,109.539c0,27.018-22.01,49.028-49.028,49.028c-5.422,0-10.66-0.873-15.531-2.527
		c24.445-11.396,41.446-36.208,41.446-64.88c0-9.144-1.746-17.874-4.917-25.915C162.752,73.101,174.239,90.011,174.239,109.539z"/>
	<path d="M138.491,62.33c-5.744-15.577-16.817-28.626-31.016-36.943c0,0,0,0-0.046,0c-10.568-6.203-22.883-9.741-35.978-9.741
		c-24.307,0-45.857,12.222-58.723,30.878C4.687,58.057,0,72.071,0,87.143c0,16.266,5.468,31.291,14.704,43.33
		c3.998,5.238,8.684,9.879,13.923,13.739c4.595,3.538,9.603,6.433,14.979,8.73c0.046,0,0.046,0,0.046,0
		c8.547,3.63,17.92,5.652,27.799,5.652c10.522,0,20.539-2.297,29.545-6.433c3.814-1.746,7.49-3.814,10.89-6.203
		c7.306-4.963,13.647-11.304,18.609-18.655c6.571-9.512,10.844-20.723,12.085-32.854v-0.046c0.23-2.389,0.368-4.825,0.368-7.26
		C142.948,78.412,141.386,70.049,138.491,62.33z M97.642,48.224c6.801,0,12.269,5.514,12.269,12.268
		c0,0.506-0.046,1.011-0.092,1.516c-0.735,6.065-5.882,10.752-12.177,10.752c-6.754,0-12.222-5.514-12.222-12.269
		c0-6.203,4.595-11.349,10.614-12.176C96.539,48.27,97.091,48.224,97.642,48.224z M45.26,126.015
		c-6.755,0-12.269-5.514-12.269-12.268c0-6.755,5.514-12.268,12.269-12.268c6.754,0,12.268,5.514,12.268,12.268
		C57.528,120.502,52.014,126.015,45.26,126.015z M45.26,72.761c-6.755,0-12.269-5.514-12.269-12.269
		c0-6.754,5.514-12.268,12.269-12.268c6.754,0,12.268,5.514,12.268,12.268C57.528,67.247,52.014,72.761,45.26,72.761z M62.95,87.097
		c0-3.125,1.7-5.836,4.182-7.26c1.286-0.827,2.757-1.241,4.319-1.241c4.687,0,8.5,3.814,8.5,8.501c0,1.424-0.368,2.757-1.011,3.952
		c-1.378,2.757-4.227,4.595-7.489,4.595C66.764,95.643,62.95,91.829,62.95,87.097z M97.642,126.015
		c-6.754,0-12.222-5.514-12.222-12.268c0-6.755,5.468-12.268,12.222-12.268c6.801,0,12.269,5.514,12.269,12.268
		C109.911,120.502,104.443,126.015,97.642,126.015z"/>
</g>
<g>
</g>
<g>
</g>
<g>
</g>
<g>
</g>
<g>
</g>
<g>
</g>
<g>
</g>
<g>
</g>
<g>
</g>
<g>
</g>
<g>
</g>
<g>
</g>
<g>
</g>
<g>
</g>
<g>
</g>
</svg>
