<?xml version="1.0" encoding="iso-8859-1"?>
<!-- Generator: Adobe Illustrator 19.0.0, SVG Export Plug-In . SVG Version: 6.00 Build 0)  -->
<svg version="1.1" id="Capa_1" xmlns="http://www.w3.org/2000/svg" xmlns:xlink="http://www.w3.org/1999/xlink" x="0px" y="0px"
	 viewBox="0 0 512 512" style="enable-background:new 0 0 512 512;" xml:space="preserve">
<path style="fill:#983263;" d="M467.692,34.462H44.308C19.876,34.462,0,54.338,0,78.769v275.692
	c0,24.431,19.876,44.308,44.308,44.308h145.231l54.646,72.862c2.789,3.719,7.167,5.908,11.815,5.908
	c4.648,0,9.026-2.189,11.815-5.908l54.646-72.862h145.231c24.431,0,44.308-19.876,44.308-44.308V78.769
	C512,54.338,492.124,34.462,467.692,34.462z"/>
<path style="fill:#C9366B;" d="M256,34.462H44.308C19.876,34.462,0,54.338,0,78.769v275.692c0,24.431,19.876,44.308,44.308,44.308
	h145.231l54.646,72.862c2.789,3.719,7.167,5.908,11.815,5.908l0,0V34.462z"/>
<path style="fill:#FF8800;" d="M363.251,289.899l-17.04-42.597c5.478-12.799,8.25-26.401,8.25-40.533
	c0-57.006-46.378-103.385-103.385-103.385s-103.385,46.378-103.385,103.385s46.378,103.385,103.385,103.385
	c16.966,0,33.59-4.148,48.459-12.046l46.421,11.605c1.188,0.297,2.39,0.441,3.582,0.441c4.207,0,8.286-1.801,11.127-5.057
	C364.313,300.918,365.311,295.049,363.251,289.899z"/>
<path style="fill:#FFA500;" d="M256,103.505c-1.632-0.077-3.273-0.12-4.923-0.12c-57.006,0-103.385,46.378-103.385,103.385
	s46.378,103.385,103.385,103.385c1.645,0,3.286-0.051,4.923-0.129V103.505z"/>
<g>
</g>
<g>
</g>
<g>
</g>
<g>
</g>
<g>
</g>
<g>
</g>
<g>
</g>
<g>
</g>
<g>
</g>
<g>
</g>
<g>
</g>
<g>
</g>
<g>
</g>
<g>
</g>
<g>
</g>
</svg>
