<svg id="Layer_3" enable-background="new 0 0 64 64" height="512" viewBox="0 0 64 64" width="512" xmlns="http://www.w3.org/2000/svg"><g><g><path d="m19.999 21.901c-10.874-1.075-19-10.059-18.999-20.902h2c0 9.81 7.35 17.938 17.098 18.906l3.892-.004c9.655-.958 17.01-9.087 17.01-18.901h2c0 10.848-8.13 19.832-18.912 20.897z" fill="#606060"/></g><path d="m24 24h3.298c1.749 0 3.446.595 4.811 1.688 1.827 1.462 2.89 3.674 2.89 6.014v26.298c0 2.209-1.791 4-4 4h-17.999c-2.209 0-4-1.791-4-4v-26.298c0-2.34 1.064-4.552 2.89-6.014 1.366-1.093 3.063-1.688 4.812-1.688h3.298" fill="#398469"/><path d="m24.577 30.852c0-2.404-.427-4.703-1.176-6.852h-3.401-3.298c-1.749 0-3.445.595-4.811 1.688-1.828 1.461-2.891 3.674-2.891 6.014v19.303c8.957-2.34 15.577-10.462 15.577-20.153z" fill="#60b69c"/><path d="m28 58h-12c-1.657 0-3-1.343-3-3 0-1.657 1.343-3 3-3h12c1.657 0 3 1.343 3 3 0 1.657-1.343 3-3 3z" fill="#d5cec2"/><path d="m22 58v-6h-6c-1.657 0-3 1.343-3 3 0 1.657 1.343 3 3 3z" fill="#e7e4dd"/><path d="m35 53.385 7.444 7.444c1.562 1.562 4.095 1.562 5.657 0l12.728-12.728c1.562-1.562 1.562-4.095 0-5.657l-18.596-18.596c-1.654-1.654-3.971-2.467-6.296-2.209-1.738.193-3.359.972-4.595 2.209l-.847.847v-.001c.574.262 1.117.594 1.615.993 1.827 1.462 2.89 3.674 2.89 6.014z" fill="#183e2e"/><path d="m55.879 47.393-8.485 8.485c-1.172 1.172-3.071 1.172-4.243 0-1.172-1.172-1.172-3.071 0-4.243l8.485-8.485c1.172-1.172 3.071-1.172 4.243 0 1.171 1.172 1.171 3.072 0 4.243z" fill="#e7e4dd"/><g fill="#d5cec2"><path d="m51.636 51.636-4.243-4.243 4.243-4.243c1.172-1.172 3.071-1.172 4.243 0 1.172 1.172 1.172 3.071 0 4.243z"/><path d="m35 42.295 1.787-2.68-1.787-4.169v-.637l4.615 1.978 4.243-2.829-.707 4.95 4.95 2.121-5.657 1.415-1.415 5.657-2.121-4.95-3.908.558z"/><path d="m22 27c-1.105 0-2-.895-2-2v-4c0-1.105.895-2 2-2 1.105 0 2 .895 2 2v4c0 1.105-.895 2-2 2z"/><path d="m20 39 2-5 2 5 5 1-4 3 2 5-5-3-5 3 2-5-4-3z"/></g><g><path d="m14 31.999c-1.103 0-2-.897-2-2s.897-2 2-2 2 .897 2 2c-.001 1.103-.898 2-2 2z" fill="#398469"/></g><g><path d="m30 31.999c-1.103 0-2-.897-2-2s.897-2 2-2 2 .897 2 2-.897 2-2 2zm0-2.001v.002z" fill="#60b69c"/></g><g><path d="m37 27.999c-1.103 0-2-.897-2-2s.897-2 2-2 2 .897 2 2-.897 2-2 2zm0-2.001v.002z" fill="#398469"/></g><g><path d="m17 54h10v2h-10z" fill="#b3b3b3"/></g><g><path d="m44.55 48.499h9.899v2h-9.899z" fill="#b3b3b3" transform="matrix(.707 -.707 .707 .707 -20.503 49.499)"/></g><path d="m22 27c.885 0 1.627-.578 1.89-1.375-.595-2.301-1.551-4.455-2.84-6.375-.622.339-1.05.991-1.05 1.75v4c0 1.105.895 2 2 2z" fill="#e7e4dd"/><path d="m23.44 37.6-1.44-3.6-2 5-5 1 4 3-1.329 3.323c2.603-2.348 4.609-5.335 5.769-8.723z" fill="#e7e4dd"/></g></svg>