<?xml version="1.0" encoding="iso-8859-1"?>
<!-- Generator: Adobe Illustrator 19.0.0, SVG Export Plug-In . SVG Version: 6.00 Build 0)  -->
<svg version="1.1" id="Capa_1" xmlns="http://www.w3.org/2000/svg" xmlns:xlink="http://www.w3.org/1999/xlink" x="0px" y="0px"
	 viewBox="0 0 512 512" style="enable-background:new 0 0 512 512;" xml:space="preserve">
<polygon style="fill:#FF5252;" points="314.804,504.396 309.735,484.119 369.552,484.119 364.483,463.842 415.176,463.842 
	319.873,224.57 319.873,202.265 331.026,129.267 390.844,244.848 433.426,218.487 345.22,33.964 293.513,7.604 218.487,7.604 
	166.78,33.964 78.574,218.487 121.156,244.848 180.974,129.267 192.127,202.265 192.127,224.57 96.824,463.842 147.517,463.842 
	142.448,484.119 202.265,484.119 197.196,504.396 "/>
<path style="fill:#FF1025;" d="M293.513,7.604h-2.028c0,19.598-15.887,35.485-35.485,35.485s-35.485-15.887-35.485-35.485h-2.028
	l-45.479,23.185c7.727,27.617,28.944,49.881,56.46,58.804l13.829,4.485L256,77.028l12.703,17.05l13.829-4.485
	c27.515-8.923,48.733-31.186,56.46-58.804L293.513,7.604z"/>
<path style="fill:#D9B96A;" d="M220.515,7.604c0,19.598,15.887,35.485,35.485,35.485c19.598,0,35.485-15.887,35.485-35.485H220.515z
	"/>
<g>
	<path style="fill:#FDD844;" d="M235.723,70.305L256,43.089c-19.598,0-35.485-15.887-35.485-35.485h-2.028l-26.938,13.734
		C196.468,44.448,213.535,63.11,235.723,70.305z"/>
	<path style="fill:#FDD844;" d="M256,43.089l20.277,27.216c22.187-7.194,39.255-25.858,44.174-48.967L293.513,7.604h-2.028
		C291.485,27.202,275.598,43.089,256,43.089z"/>
</g>
<g>
	<polygon style="fill:#FF1025;" points="319.873,202.265 320.648,197.196 191.352,197.196 192.127,202.265 192.127,224.57 
		186.877,237.751 325.123,237.751 319.873,224.57 	"/>
	<polygon style="fill:#FF1025;" points="202.265,463.842 147.517,463.842 142.448,484.119 197.196,484.119 	"/>
	<polygon style="fill:#FF1025;" points="202.265,484.119 197.196,504.396 314.804,504.396 309.735,484.119 	"/>
	<polygon style="fill:#FF1025;" points="147.517,443.564 104.9,443.564 96.824,463.842 142.448,463.842 	"/>
	<polygon style="fill:#FF1025;" points="309.735,463.842 314.804,484.119 369.552,484.119 364.483,463.842 	"/>
	<polygon style="fill:#FF1025;" points="364.483,443.564 369.552,463.842 415.176,463.842 407.1,443.564 	"/>
	<polygon style="fill:#FF1025;" points="87.924,198.929 78.574,218.487 121.156,244.848 131.295,225.258 	"/>
	<polygon style="fill:#FF1025;" points="380.873,225.583 390.844,244.848 433.426,218.487 424.076,198.929 	"/>
</g>
<path style="fill:#CF9635;" d="M256,22.812c-12.056,0-22.701-6.018-29.114-15.208h-6.371c0,19.598,15.887,35.485,35.485,35.485
	c19.598,0,35.485-15.887,35.485-35.485h-6.371C278.701,16.794,268.056,22.812,256,22.812z"/>
<path d="M327.477,223.111v-20.268l7.536-49.327l52.851,102.119l55.364-34.273L350.968,28.361L295.339,0H216.66l-55.629,28.361
	L68.772,221.361l55.364,34.273l52.851-102.119l7.536,49.328v20.268L85.609,471.446h52.168l-5.069,20.277h59.818L187.457,512h137.086
	l-5.069-20.277h59.818l-5.069-20.277h52.168L327.477,223.111z M256,35.485c-12.737,0-23.499-8.589-26.819-20.277h53.637
	C279.499,26.896,268.737,35.485,256,35.485z M242.48,48.508l-9.441,12.671c-15.509-6.67-27.42-19.823-32.551-35.865l13.766-7.018
	C217.901,32.523,228.65,43.926,242.48,48.508z M297.745,18.296l13.766,7.018c-5.131,16.042-17.041,29.195-32.551,35.865
	l-9.441-12.671C283.35,43.926,294.099,32.523,297.745,18.296z M369.158,456.238l-17.064-41.442l-14.062,5.79l19.421,47.165
	l0.154-0.064l2.207,8.828h-44.142l-9.152-36.611l-14.754,3.688l13.299,53.199l0,0l0,0h-98.13l0,0l0,0l13.3-53.2l-14.754-3.688
	l-9.153,36.612h-44.141l2.207-8.828l0.154,0.064l19.421-47.165l-14.062-5.79l-17.064,41.442h-34.805l91.694-230.209v-0.951h15.715
	v-15.208h-15.715v-8.182l-14.769-96.669L118.178,234.06l-29.8-18.448l84.152-176.044l14.248-7.263
	c7.608,21.259,24.786,38.159,46.6,45.233l5.186,1.682L256,55.816l17.436,23.404l5.186-1.682c21.815-7.074,38.992-23.975,46.6-45.233
	l14.248,7.263l84.152,176.044l-29.8,18.448l-66.785-129.041l-14.768,96.669v8.182h-15.715v15.208h15.715v0.951l91.693,230.209
	H369.158z"/>
<rect x="230.653" y="209.869" width="50.693" height="15.208"/>
<rect x="248.396" y="178.947" width="15.208" height="15.208"/>
<rect x="248.396" y="133.323" width="15.208" height="15.208"/>
<rect x="248.396" y="87.699" width="15.208" height="15.208"/>
<rect x="168.003" y="388.989" transform="matrix(0.9247 0.3807 -0.3807 0.9247 164.2062 -36.9894)" width="15.208" height="15.208"/>
<rect x="179.59" y="360.868" transform="matrix(0.9247 0.3807 -0.3807 0.9247 154.3732 -43.5184)" width="15.208" height="15.208"/>
<rect x="218.17" y="382.525" transform="matrix(0.9701 0.2425 -0.2425 0.9701 101.3507 -43.107)" width="15.207" height="15.207"/>
<rect x="210.8" y="412.02" transform="matrix(0.9701 0.2426 -0.2426 0.9701 108.3282 -40.4499)" width="15.208" height="15.208"/>
<rect x="317.211" y="360.884" transform="matrix(-0.9247 0.3808 -0.3808 -0.9247 765.4756 585.5302)" width="15.209" height="15.209"/>
<rect x="328.777" y="388.969" transform="matrix(0.3808 0.9247 -0.9247 0.3808 574.9895 -65.4752)" width="15.209" height="15.209"/>
<rect x="278.607" y="382.497" transform="matrix(-0.9701 0.2425 -0.2425 -0.9701 658.482 699.147)" width="15.207" height="15.207"/>
<rect x="285.973" y="411.995" transform="matrix(0.2426 0.9701 -0.9701 0.2426 629.4161 32.9952)" width="15.208" height="15.208"/>
<g>
	
		<rect x="193.313" y="300.101" transform="matrix(-0.3547 0.935 -0.935 -0.3547 559.8806 228.9919)" style="fill:#FFFFFF;" width="15.208" height="15.208"/>
	
		<rect x="208.305" y="248.685" transform="matrix(0.935 0.3546 -0.3546 0.935 109.1229 -59.1363)" style="fill:#FFFFFF;" width="15.208" height="38.957"/>
	
		<rect x="270.978" y="283.38" transform="matrix(0.3038 0.9527 -0.9527 0.3038 491.4386 -90.5651)" style="fill:#FFFFFF;" width="73.421" height="15.207"/>
	
		<rect x="350.807" y="96.06" transform="matrix(-0.8812 0.4728 -0.4728 -0.8812 730.8033 55.627)" style="fill:#FFFFFF;" width="15.208" height="47.176"/>
	
		<rect x="115.064" y="176.448" transform="matrix(0.8654 0.501 -0.501 0.8654 110.4866 -36.2175)" style="fill:#FFFFFF;" width="15.207" height="22.257"/>
	
		<rect x="178.324" y="68.441" transform="matrix(-0.6196 -0.7849 0.7849 -0.6196 249.0029 272.7639)" style="fill:#FFFFFF;" width="24.545" height="15.208"/>
	<rect x="277.798" y="152.586" style="fill:#FFFFFF;" width="15.208" height="34.471"/>
	<rect x="234.709" y="462.321" style="fill:#FFFFFF;" width="41.568" height="15.208"/>
</g>
<g>
</g>
<g>
</g>
<g>
</g>
<g>
</g>
<g>
</g>
<g>
</g>
<g>
</g>
<g>
</g>
<g>
</g>
<g>
</g>
<g>
</g>
<g>
</g>
<g>
</g>
<g>
</g>
<g>
</g>
</svg>
