<svg id="Filled" height="512" viewBox="0 0 512 512" width="512" xmlns="http://www.w3.org/2000/svg"><rect fill="#6a7073" height="448" rx="16" width="352" x="24" y="40"/><path d="m56 88h288v368h-288z" fill="#fae8d8"/><path d="m163.1 42.63 4.9 29.37v16h64v-16l4.9-29.37a16 16 0 0 0 -15.787-18.63h-42.226a16 16 0 0 0 -15.787 18.63z" fill="#ce3536"/><path d="m128 72h144a16 16 0 0 1 16 16v32a0 0 0 0 1 0 0h-176a0 0 0 0 1 0 0v-32a16 16 0 0 1 16-16z" fill="#e74444"/><path d="m432 88a24 24 0 0 0 -24 24v264l24 48 24-48v-264a24 24 0 0 0 -24-24z" fill="#d9dbdd"/><path d="m408 120h48v112h-48z" fill="#6a7073"/><path d="m408 264h48v112h-48z" fill="#6a7073"/><path d="m248 216a48 48 0 0 0 -96 0z" fill="#d9dbdd"/><path d="m472 112h-8a32 32 0 0 0 -64 0v264a7.994 7.994 0 0 0 .845 3.578l24 48a8 8 0 0 0 14.31 0l24-48a7.994 7.994 0 0 0 .845-3.578v-248h8a8.009 8.009 0 0 1 8 8v88a8 8 0 0 0 16 0v-88a24.028 24.028 0 0 0 -24-24zm-40 294.111-11.056-22.111h22.112zm16-38.111h-32v-96h32zm0-112h-32v-16h32zm0-32h-32v-96h32zm-32-112a16 16 0 0 1 32 0z"/><path d="m256 256h-128a8 8 0 0 0 0 16h128a8 8 0 0 0 0-16z"/><path d="m256 304h-128a8 8 0 0 0 0 16h128a8 8 0 0 0 0-16z"/><path d="m256 352h-128a8 8 0 0 0 0 16h128a8 8 0 0 0 0-16z"/><path d="m256 400h-128a8 8 0 0 0 0 16h128a8 8 0 0 0 0-16z"/><path d="m264 208h-8.581a56.111 56.111 0 0 0 -47.419-47.419v-8.581a8 8 0 0 0 -16 0v8.581a56.111 56.111 0 0 0 -47.419 47.419h-8.581a8 8 0 0 0 0 16h128a8 8 0 0 0 0-16zm-64-32a40.069 40.069 0 0 1 39.2 32h-78.39a40.069 40.069 0 0 1 39.19-32z"/><circle cx="96" cy="408" r="8"/><circle cx="96" cy="360" r="8"/><circle cx="96" cy="312" r="8"/><circle cx="96" cy="264" r="8"/><path d="m288 264a8 8 0 0 0 8 8h8a8 8 0 0 0 0-16h-8a8 8 0 0 0 -8 8z"/><path d="m304 304h-16a8 8 0 0 0 0 16h16a8 8 0 0 0 0-16z"/><path d="m304 352h-16a8 8 0 0 0 0 16h16a8 8 0 0 0 0-16z"/><path d="m304 400h-16a8 8 0 0 0 0 16h16a8 8 0 0 0 0-16z"/><path d="m376 32h-132.264a23.98 23.98 0 0 0 -22.624-16h-42.224a23.98 23.98 0 0 0 -22.624 16h-132.264a8 8 0 0 0 -8 8v448a8 8 0 0 0 8 8h352a8 8 0 0 0 8-8v-448a8 8 0 0 0 -8-8zm-40 64v352h-272v-352h40v24a8 8 0 0 0 8 8h176a8 8 0 0 0 8-8v-24zm-56 16h-160v-24a8.009 8.009 0 0 1 8-8h144a8.009 8.009 0 0 1 8 8zm-107.217-77.171a7.881 7.881 0 0 1 6.105-2.829h42.224a8 8 0 0 1 7.888 9.315l-3.778 22.685h-50.445l-3.777-22.685a7.886 7.886 0 0 1 1.783-6.486zm195.217 445.171h-336v-432h123.889l2.667 16h-30.556a24.039 24.039 0 0 0 -22.624 16h-49.376a8 8 0 0 0 -8 8v368a8 8 0 0 0 8 8h288a8 8 0 0 0 8-8v-368a8 8 0 0 0 -8-8h-49.376a24.039 24.039 0 0 0 -22.624-16h-30.556l2.666-16h123.89z"/></svg>