<svg id="icons" enable-background="new 0 0 64 64" height="512" viewBox="0 0 64 64" width="512" xmlns="http://www.w3.org/2000/svg"><g><g><path d="m59 24h4v6h-4z" fill="#5c9eff"/></g><g><path d="m63 24h-4-54l-4-4h4 54z" fill="#94c1ff"/></g><g><path d="m1 14h4v6h-4z" fill="#5c9eff"/></g><g><path d="m63 30-4 4h-54-4l4-4h54z" fill="#94c1ff"/></g><g><path d="m59 44h4v6h-4z" fill="#5c9eff"/></g><g><path d="m63 50-4 4h-46l-5-2 5-2h46z" fill="#94c1ff"/></g><g><path d="m63 44h-4-54l-4-4h4 54z" fill="#94c1ff"/></g><g><path d="m1 34h4v6h-4z" fill="#5c9eff"/></g><g><path d="m56 12-5 2h-46-4l4-4h46z" fill="#94c1ff"/></g></g><g><g><path d="m55.999 13c-.124 0-.25-.023-.371-.072l-5-2c-.513-.206-.763-.787-.558-1.3s.791-.761 1.3-.557l5 2c.513.206.763.787.558 1.3-.157.391-.532.629-.929.629z" fill="#116fff"/></g><g><path d="m50.999 15c-.396 0-.772-.238-.929-.629-.205-.513.045-1.095.558-1.3l5-2c.509-.203 1.095.044 1.3.557s-.045 1.095-.558 1.3l-5 2c-.121.049-.247.072-.371.072z" fill="#116fff"/></g><g><path d="m63.001 13h-7.002c-.553 0-1-.448-1-1s.447-1 1-1h7.002c.553 0 1 .448 1 1s-.447 1-1 1z" fill="#116fff"/></g><g><path d="m13.001 55c-.124 0-.25-.022-.371-.071l-5-2c-.513-.205-.763-.787-.558-1.3.205-.515.792-.762 1.3-.558l5 2c.513.205.763.787.558 1.3-.157.392-.533.629-.929.629z" fill="#116fff"/></g><g><path d="m8.001 53c-.396 0-.772-.237-.929-.629-.205-.513.045-1.095.558-1.3l5-2c.508-.204 1.095.043 1.3.558.205.513-.045 1.095-.558 1.3l-5 2c-.121.049-.247.071-.371.071z" fill="#116fff"/></g><g><path d="m8.001 53h-7.002c-.553 0-1-.447-1-1s.447-1 1-1h7.002c.553 0 1 .447 1 1s-.447 1-1 1z" fill="#116fff"/></g><g><path d="m50.999 15h-49.998c-.553 0-1-.448-1-1s.447-1 1-1h49.998c.553 0 1 .448 1 1s-.447 1-1 1z" fill="#116fff"/></g><g><path d="m50.999 11h-45.998c-.553 0-1-.448-1-1s.447-1 1-1h45.998c.553 0 1 .448 1 1s-.447 1-1 1z" fill="#116fff"/></g><g><path d="m1.001 15c-.256 0-.512-.098-.707-.293-.391-.391-.391-1.023 0-1.414l4-4c.391-.391 1.023-.391 1.414 0s.391 1.023 0 1.414l-4 4c-.195.195-.451.293-.707.293z" fill="#116fff"/></g><g><path d="m59.001 20.999h-58c-.553 0-1-.448-1-1s.447-1 1-1h58c.553 0 1 .448 1 1s-.447 1-1 1z" fill="#116fff"/></g><g><path d="m63.001 24.999h-58c-.553 0-1-.448-1-1s.447-1 1-1h58c.553 0 1 .448 1 1s-.447 1-1 1z" fill="#116fff"/></g><g><path d="m5.001 24.999c-.256 0-.512-.098-.707-.293l-4-4c-.391-.391-.391-1.023 0-1.414s1.023-.391 1.414 0l4 4c.391.391.391 1.023 0 1.414-.195.195-.451.293-.707.293z" fill="#116fff"/></g><g><path d="m63.001 24.999c-.256 0-.512-.098-.707-.293l-4-4c-.391-.391-.391-1.023 0-1.414s1.023-.391 1.414 0l4 4c.391.391.391 1.023 0 1.414-.195.195-.451.293-.707.293z" fill="#116fff"/></g><g><path d="m5.001 20.999c-.553 0-1-.448-1-1v-5.999c0-.552.447-1 1-1s1 .448 1 1v5.999c0 .552-.447 1-1 1z" fill="#116fff"/></g><g><path d="m1.001 20.999c-.553 0-1-.448-1-1v-5.999c0-.552.447-1 1-1s1 .448 1 1v5.999c0 .552-.447 1-1 1z" fill="#116fff"/></g><g><path d="m1.001 35c-.256 0-.512-.098-.707-.293-.391-.391-.391-1.023 0-1.414l4-4c.391-.391 1.023-.391 1.414 0s.391 1.023 0 1.414l-4 4c-.195.195-.451.293-.707.293z" fill="#116fff"/></g><g><path d="m5.001 45c-.256 0-.512-.098-.707-.293l-4-4c-.391-.391-.391-1.023 0-1.414s1.023-.391 1.414 0l4 4c.391.391.391 1.023 0 1.414-.195.195-.451.293-.707.293z" fill="#116fff"/></g><g><path d="m5.001 41c-.553 0-1-.447-1-1v-6c0-.553.447-1 1-1s1 .447 1 1v6c0 .553-.447 1-1 1z" fill="#116fff"/></g><g><path d="m1.001 41c-.553 0-1-.447-1-1v-6c0-.553.447-1 1-1s1 .447 1 1v6c0 .553-.447 1-1 1z" fill="#116fff"/></g><g><path d="m63.001 31c-.553 0-1-.448-1-1v-6c0-.552.447-1 1-1s1 .448 1 1v6c0 .552-.447 1-1 1z" fill="#116fff"/></g><g><path d="m59.001 31c-.553 0-1-.448-1-1v-6c0-.552.447-1 1-1s1 .448 1 1v6c0 .552-.447 1-1 1z" fill="#116fff"/></g><g><path d="m59.001 35c-.256 0-.512-.098-.707-.293-.391-.391-.391-1.023 0-1.414l4-4c.391-.391 1.023-.391 1.414 0s.391 1.023 0 1.414l-4 4c-.195.195-.451.293-.707.293z" fill="#116fff"/></g><g><path d="m63.001 45c-.256 0-.512-.098-.707-.293l-4-4c-.391-.391-.391-1.023 0-1.414s1.023-.391 1.414 0l4 4c.391.391.391 1.023 0 1.414-.195.195-.451.293-.707.293z" fill="#116fff"/></g><g><path d="m63.001 51c-.553 0-1-.447-1-1v-5.999c0-.553.447-1 1-1s1 .447 1 1v5.999c0 .553-.447 1-1 1z" fill="#116fff"/></g><g><path d="m59.001 51c-.553 0-1-.447-1-1v-5.999c0-.553.447-1 1-1s1 .447 1 1v5.999c0 .553-.447 1-1 1z" fill="#116fff"/></g><g><path d="m59.001 55c-.256 0-.512-.098-.707-.293-.391-.391-.391-1.023 0-1.414l4-4c.391-.391 1.023-.391 1.414 0s.391 1.023 0 1.414l-4 4c-.195.195-.451.293-.707.293z" fill="#116fff"/></g><g><path d="m63.001 31h-58c-.553 0-1-.448-1-1s.447-1 1-1h58c.553 0 1 .448 1 1s-.447 1-1 1z" fill="#116fff"/></g><g><path d="m59.001 35h-58c-.553 0-1-.447-1-1s.447-1 1-1h58c.553 0 1 .447 1 1s-.447 1-1 1z" fill="#116fff"/></g><g><path d="m59.001 41h-58c-.553 0-1-.447-1-1s.447-1 1-1h58c.553 0 1 .447 1 1s-.447 1-1 1z" fill="#116fff"/></g><g><path d="m63.001 45h-58c-.553 0-1-.447-1-1s.447-1 1-1h58c.553 0 1 .447 1 1s-.447 1-1 1z" fill="#116fff"/></g><g><path d="m63.001 51h-50c-.553 0-1-.447-1-1s.447-1 1-1h50c.553 0 1 .447 1 1s-.447 1-1 1z" fill="#116fff"/></g><g><path d="m59.001 55h-46c-.553 0-1-.447-1-1s.447-1 1-1h46c.553 0 1 .447 1 1s-.447 1-1 1z" fill="#116fff"/></g></g></svg>