<?xml version="1.0" encoding="iso-8859-1"?>
<!-- Generator: Adobe Illustrator 19.0.0, SVG Export Plug-In . SVG Version: 6.00 Build 0)  -->
<svg version="1.1" id="Capa_1" xmlns="http://www.w3.org/2000/svg" xmlns:xlink="http://www.w3.org/1999/xlink" x="0px" y="0px"
	 viewBox="0 0 414.001 414.001" style="enable-background:new 0 0 414.001 414.001;" xml:space="preserve">
<g>
	<path style="fill:#F7B05C;" d="M49.001,406V142.96l5.76-1.68c46.8-13.6,57.12-74.48,59.12-92.8l0.8-7.12h92.32v246.56L184.361,406
		L49.001,406z"/>
	<path style="fill:#F7B05C;" d="M49.001,128.64l29.36-87.36h36.4l-1.12,9.04c-2.72,21.68-13.52,73.68-53.76,89.36l-10.88,4.24
		L49.001,128.64z"/>
	<path style="fill:#F7B05C;" d="M149.401,8h57.6v33.36h-57.6V8z"/>
	<path style="fill:#F7B05C;" d="M126.361,8h23.04v33.36h-23.04L126.361,8z"/>
	<path style="fill:#F7B05C;" d="M78.361,8h48v33.36h-48V8z"/>
	<path style="fill:#F7B05C;" d="M207.001,8h57.6v33.36h-57.6V8z"/>
	<path style="fill:#F7B05C;" d="M354.121,139.6c-40-16-50.96-67.68-53.68-89.36l-1.12-9.04h36.4l29.36,87.36v15.28L354.121,139.6z"
		/>
	<path style="fill:#F7B05C;" d="M229.641,406l-22.64-118.08v-62.8l5.44-1.84c19.823-6.888,32.42-26.377,30.56-47.28V41.28h56
		l0.8,7.12c2,18.32,12.32,79.28,59.12,92.8l5.76,1.68V406L229.641,406z"/>
	<path style="fill:#F7B05C;" d="M264.601,8h23.04v33.36h-23.04V8z"/>
	<path style="fill:#F7B05C;" d="M207.001,41.28h36v134.64c1.382,18.411-8.17,35.919-24.4,44.72l-11.6,5.84V41.28z"/>
	<path style="fill:#F7B05C;" d="M287.641,8h48v33.36h-48V8z"/>
</g>
<path style="fill:#4C382B;" d="M343.641,40V8c0-4.418-3.582-8-8-8H78.361c-4.418,0-8,3.582-8,8v32l-28.96,86.08
	c-0.272,0.826-0.407,1.691-0.4,2.56V406c0,4.418,3.582,8,8,8h135.36c3.887,0.071,7.262-2.663,8-6.48l14.64-77.12l14.8,77.12
	c0.738,3.817,4.113,6.551,8,6.48h135.2c4.418,0,8-3.582,8-8V128.64c0.007-0.869-0.128-1.734-0.4-2.56L343.641,40z M134.361,16h6.96
	v17.36h-6.96V16z M86.361,16h32v17.36h-32V16z M57.001,129.92l27.12-80.64h21.6c-2.48,19.76-12.32,68.72-48.72,82.88V129.92z
	 M199.001,286.96L177.721,398H57.001V148.88c50.88-14.72,62.4-77.44,64.88-99.6h77.12L199.001,286.96z M199.001,33.04h-41.6V16h41.6
	L199.001,33.04z M295.641,16h32v17.36h-32V16z M272.681,16h6.96v17.36h-7.04L272.681,16z M215.081,16h41.6v17.36h-41.68L215.081,16z
	 M215.081,49.36h20v126.56c0,1.2,1.76,26.64-20,37.6V49.36z M357.001,398h-120.72l-21.28-111.04v-56
	c23.467-8.146,38.332-31.269,36-56V49.28h41.12c2.48,22.16,14,84.88,64.88,99.6V398z M357.001,132.24
	c-36.24-14.16-46.16-63.12-48.72-82.88h21.6l27.12,80.64V132.24z"/>
<g>
</g>
<g>
</g>
<g>
</g>
<g>
</g>
<g>
</g>
<g>
</g>
<g>
</g>
<g>
</g>
<g>
</g>
<g>
</g>
<g>
</g>
<g>
</g>
<g>
</g>
<g>
</g>
<g>
</g>
</svg>
