<?xml version="1.0"?>
<svg xmlns="http://www.w3.org/2000/svg" width="512" height="512" viewBox="0 0 128 128"><g><g><circle cx="46.375" cy="76.065" r="44.625" fill="#704c55"/><circle cx="46.375" cy="76.065" r="34.625" fill="#fed843"/><path d="M126.25,38.19h-8.7a1.75,1.75,0,0,1,0-3.5h8.7a1.75,1.75,0,0,1,0,3.5Z" fill="#9b786f"/><path d="M46.375,31.44A44.878,44.878,0,0,1,55,32.281V22.94a4,4,0,0,0-4-4H41.75a4,4,0,0,0-4,4v9.341A44.878,44.878,0,0,1,46.375,31.44Z" fill="#979fef"/><path d="M112.661,16.206H99.014A4.888,4.888,0,0,0,94.126,21.1V48.7a4.888,4.888,0,0,0,4.888,4.889h1.528l3.174,65.074a2.124,2.124,0,0,0,4.244,0l3.174-65.074h1.527A4.889,4.889,0,0,0,117.55,48.7V21.1A4.889,4.889,0,0,0,112.661,16.206Zm-1.629,30.86H100.644V22.725h10.388Z" fill="#e2e2e7"/><path d="M42.675,68.2a1.751,1.751,0,0,0-2.475,0l-5.387,5.388L29.425,68.2a1.75,1.75,0,0,0-2.475,2.475l5.388,5.387L26.95,81.453a1.75,1.75,0,0,0,2.475,2.475l5.388-5.388L40.2,83.928a1.75,1.75,0,0,0,2.475-2.475l-5.388-5.388,5.388-5.387A1.751,1.751,0,0,0,42.675,68.2Z" fill="#9b786f"/><path d="M111.032,34.69h-2.886A21.17,21.17,0,0,1,87,13.544a7.985,7.985,0,0,0-15.969,0v23.9A55.235,55.235,0,0,1,57.8,73.452L52.55,68.2a1.75,1.75,0,0,0-2.475,2.475l5.37,5.369c-.241.25-.471.508-.718.754l-4.652,4.652a1.75,1.75,0,0,0,2.475,2.475L57.2,79.275c.246-.246.476-.5.718-.753l5.405,5.406A1.75,1.75,0,0,0,65.8,81.453l-5.521-5.521A58.71,58.71,0,0,0,74.531,37.44v-23.9a4.485,4.485,0,0,1,8.969,0A24.674,24.674,0,0,0,108.146,38.19h2.886v-3.5Z" fill="#9b786f"/></g><g><path d="M110.071,75.377a1.747,1.747,0,0,0-1.834,1.663l-.367,7.542a1.751,1.751,0,0,0,1.662,1.834h.087a1.751,1.751,0,0,0,1.747-1.665l.367-7.542A1.75,1.75,0,0,0,110.071,75.377Z"/><path d="M29.425,68.2a1.75,1.75,0,0,0-2.475,2.475l5.388,5.387L26.95,81.453a1.75,1.75,0,0,0,2.475,2.475l5.388-5.388L40.2,83.928a1.75,1.75,0,0,0,2.475-2.475l-5.388-5.388,5.388-5.387A1.75,1.75,0,0,0,40.2,68.2l-5.387,5.388Z"/><path d="M126.25,34.69H119.3V21.1a6.646,6.646,0,0,0-6.639-6.638H99.014A6.646,6.646,0,0,0,92.376,21.1v6.487A21.034,21.034,0,0,1,87,13.544a7.985,7.985,0,0,0-15.969,0V36.816A46.1,46.1,0,0,0,56.75,30.875V22.94A5.757,5.757,0,0,0,51,17.19H41.75A5.757,5.757,0,0,0,36,22.94v7.935a46.408,46.408,0,1,0,38.488,8.342c.017-.592.043-1.182.043-1.777v-23.9a4.485,4.485,0,0,1,8.969,0,24.6,24.6,0,0,0,8.876,18.923V48.7a6.646,6.646,0,0,0,6.5,6.638l3.092,63.4a3.874,3.874,0,0,0,7.74.011l1.124-23.036a1.75,1.75,0,1,0-3.5-.17l-1.124,23.045a.374.374,0,0,1-.747-.01L102.29,53.5a1.749,1.749,0,0,0-1.748-1.664H99.014A3.142,3.142,0,0,1,95.876,48.7V34.905a24.72,24.72,0,0,0,3.018,1.477V47.066a1.75,1.75,0,0,0,1.75,1.75h10.388a1.751,1.751,0,0,0,1.75-1.75V22.725a1.75,1.75,0,0,0-1.75-1.75H100.644a1.749,1.749,0,0,0-1.75,1.75v9.8a21.125,21.125,0,0,1-3.018-1.8V21.1a3.141,3.141,0,0,1,3.138-3.138h13.647A3.142,3.142,0,0,1,115.8,21.1V48.7a3.142,3.142,0,0,1-3.139,3.139h-1.527a1.749,1.749,0,0,0-1.748,1.664l-.614,12.586a1.75,1.75,0,0,0,3.5.171l.533-10.922a6.648,6.648,0,0,0,6.5-6.638V38.19h6.95a1.75,1.75,0,0,0,0-3.5ZM39.5,22.94a2.253,2.253,0,0,1,2.25-2.25H51a2.253,2.253,0,0,1,2.25,2.25V30.2a46.324,46.324,0,0,0-13.75,0ZM89.25,76.065A42.941,42.941,0,1,1,70.911,40.936a56.089,56.089,0,0,1-.953,7.468A36.21,36.21,0,0,0,46.375,39.69a1.75,1.75,0,0,0,0,3.5,32.754,32.754,0,0,1,22.652,9.084A55.151,55.151,0,0,1,57.8,73.452L52.55,68.2a1.75,1.75,0,0,0-2.475,2.475l5.37,5.369c-.241.25-.471.508-.718.754l-4.652,4.652a1.75,1.75,0,0,0,2.475,2.475L57.2,79.275c.246-.246.476-.5.718-.753l5.405,5.406A1.75,1.75,0,0,0,65.8,81.453l-5.521-5.521A58.659,58.659,0,0,0,71.8,55.255,32.861,32.861,0,1,1,36,44.868a1.75,1.75,0,1,0-1.107-3.32,36.416,36.416,0,1,0,38.022,9.678,59.207,59.207,0,0,0,1.309-7.721A42.783,42.783,0,0,1,89.25,76.065Zm13.144-30.749v-7.81a24.619,24.619,0,0,0,5.752.684h1.136v7.126Zm0-20.841h6.888V34.69h-1.136a21.014,21.014,0,0,1-5.752-.816Z"/></g></g></svg>
