<?xml version="1.0" encoding="iso-8859-1"?>
<!-- Generator: Adobe Illustrator 19.0.0, SVG Export Plug-In . SVG Version: 6.00 Build 0)  -->
<svg version="1.1" id="Capa_1" xmlns="http://www.w3.org/2000/svg" xmlns:xlink="http://www.w3.org/1999/xlink" x="0px" y="0px"
	 viewBox="0 0 512 512" style="enable-background:new 0 0 512 512;" xml:space="preserve">
<path style="fill:#656D78;" d="M36,448v8c0,4.422,3.578,8,8,8s8-3.578,8-8v-8H36z"/>
<g style="opacity:0.2;">
	<rect x="36" y="448" width="16" height="8"/>
</g>
<path style="fill:#656D78;" d="M452,448v8c0,4.422,3.578,8,8,8s8-3.578,8-8v-8H452z"/>
<g style="opacity:0.2;">
	<rect x="452" y="448" width="16" height="8"/>
</g>
<rect x="300" y="48" style="fill:#E6E9ED;" width="72" height="24"/>
<polygon style="fill:#FFCE54;" points="344.164,72 312.164,72 324,48 356,48 "/>
<rect x="148" y="56" style="fill:#CCD1D9;" width="16" height="16"/>
<path style="fill:#E6E9ED;" d="M396,136c22.078,0,40,17.922,40,40s-17.922,40-40,40s-40-17.922-40-40S373.922,136,396,136z"/>
<path style="fill:#FFFFFF;" d="M364,176c0-20.711,15.828-37.563,36-39.594c-1.336-0.141-2.633-0.406-4-0.406
	c-22.078,0-40,17.922-40,40s17.922,40,40,40c1.367,0,2.664-0.266,4-0.406C379.828,213.563,364,196.711,364,176z"/>
<g style="opacity:0.2;">
	<path d="M428,176c0,20.711-15.828,37.563-36,39.594c1.336,0.141,2.633,0.406,4,0.406c22.078,0,40-17.922,40-40s-17.922-40-40-40
		c-1.367,0-2.664,0.266-4,0.406C412.172,138.438,428,155.289,428,176z"/>
</g>
<path style="fill:#AC92EC;" d="M452,72h-16h-24H148H60c-8.883,0-16,7.117-16,16v64v80c0,8.883,7.117,16,16,16h64h8h16h16
	c16,0,48-64,80-64h56c8.883,0,16,7.117,16,16v152v8h168v-8V104C484,86.32,469.68,72,452,72z M272,144c-24.32,0-44-7.203-44-16
	s19.68-16,44-16s44,7.203,44,16S296.32,144,272,144z M396,216c-22.078,0-40-17.922-40-40s17.922-40,40-40s40,17.922,40,40
	S418.078,216,396,216z"/>
<g style="opacity:0.2;">
	<path d="M452,72h-16c17.68,0,32,14.32,32,32v248v8h16v-8V104C484,86.32,469.68,72,452,72z"/>
</g>
<g style="opacity:0.3;">
	<path style="fill:#FFFFFF;" d="M60,232v-80V88c0-8.883,7.117-16,16-16H60c-8.883,0-16,7.117-16,16v64v80c0,8.883,7.117,16,16,16h16
		C67.117,248,60,240.883,60,232z"/>
</g>
<g>
	<path style="fill:#3A3847;" d="M396.242,148c-2.211,0-4.039-1.789-4.039-4s1.75-4,3.953-4h0.086c2.203,0,4,1.789,4,4
		S398.445,148,396.242,148z"/>
	<path style="fill:#3A3847;" d="M396.242,212c-2.211,0-4.039-1.789-4.039-4s1.75-4,3.953-4h0.086c2.203,0,4,1.789,4,4
		S398.445,212,396.242,212z"/>
	<path style="fill:#3A3847;" d="M373.609,157.367c-2.211,0-4.039-1.789-4.039-4s1.75-4,3.953-4h0.086c2.203,0,4,1.789,4,4
		S375.813,157.367,373.609,157.367z"/>
	<path style="fill:#3A3847;" d="M418.867,202.625c-2.211,0-4.039-1.789-4.039-4s1.75-4,3.953-4h0.086c2.203,0,4,1.789,4,4
		S421.07,202.625,418.867,202.625z"/>
	<path style="fill:#3A3847;" d="M364.227,180c-2.211,0-4.039-1.789-4.039-4s1.75-4,3.953-4h0.086c2.203,0,4,1.789,4,4
		S366.43,180,364.227,180z"/>
	<path style="fill:#3A3847;" d="M428.227,180c-2.211,0-4.039-1.789-4.039-4s1.75-4,3.953-4h0.086c2.203,0,4,1.789,4,4
		S430.43,180,428.227,180z"/>
	<path style="fill:#3A3847;" d="M373.594,202.633c-2.211,0-4.039-1.789-4.039-4s1.75-4,3.953-4h0.086c2.203,0,4,1.789,4,4
		S375.797,202.633,373.594,202.633z"/>
	<path style="fill:#3A3847;" d="M418.852,157.375c-2.211,0-4.039-1.789-4.039-4s1.75-4,3.953-4h0.086c2.203,0,4,1.789,4,4
		S421.055,157.375,418.852,157.375z"/>
</g>
<path style="fill:#FFCE54;" d="M272,112c24.32,0,44,7.203,44,16s-19.68,16-44,16s-44-7.203-44-16S247.68,112,272,112z"/>
<g style="opacity:0.5;">
	<path style="fill:#FFFFFF;" d="M236,128c0-8.313,17.563-15.188,40-15.93c-1.32-0.039-2.648-0.07-4-0.07c-24.32,0-44,7.203-44,16
		s19.68,16,44,16c1.352,0,2.68-0.031,4-0.07C253.563,143.188,236,136.313,236,128z"/>
</g>
<g style="opacity:0.2;">
	<path d="M308,128c0,8.313-17.563,15.188-40,15.93c1.32,0.039,2.648,0.07,4,0.07c24.32,0,44-7.203,44-16s-19.68-16-44-16
		c-1.352,0-2.68,0.031-4,0.07C290.438,112.813,308,119.688,308,128z"/>
</g>
<g>
	<path style="fill:#E6E9ED;" d="M500,368v72c0,4.398-3.602,8-8,8H292v-8v-80h24h168h8C496.398,360,500,363.602,500,368z"/>
	<path style="fill:#E6E9ED;" d="M292,440v8H12c-4.398,0-8-3.602-8-8v-72c0-4.398,3.602-8,8-8h56h224V440z"/>
</g>
<g style="opacity:0.2;">
	<path d="M484,368v72c0,4.398-3.602,8-8,8h16c4.398,0,8-3.602,8-8v-72c0-4.398-3.602-8-8-8h-16C480.398,360,484,363.602,484,368z"/>
</g>
<path style="fill:#FFFFFF;" d="M20,440v-72c0-4.398,3.602-8,8-8H12c-4.398,0-8,3.602-8,8v72c0,4.398,3.602,8,8,8h16
	C23.602,448,20,444.398,20,440z"/>
<rect x="132" y="72" style="fill:#656D78;" width="16" height="176"/>
<g style="opacity:0.2;">
	<rect x="132" y="72" width="8" height="176"/>
</g>
<rect x="484" y="120" style="fill:#656D78;" width="16" height="64"/>
<rect x="484" y="208" style="fill:#E6E9ED;" width="24" height="40"/>
<g style="opacity:0.2;">
	<rect x="364" y="296" style="fill:#FFFFFF;" width="72" height="24"/>
</g>
<g style="opacity:0.2;">
	<rect x="316" y="352" width="168" height="8"/>
</g>
<g style="opacity:0.2;">
	<rect x="484" y="120" width="8" height="64"/>
</g>
<g style="opacity:0.2;">
	<rect x="484" y="208" width="8" height="40"/>
</g>
<g style="opacity:0.5;">
	<rect x="300" y="48" style="fill:#FFFFFF;" width="72" height="8"/>
</g>
<g>
	<path style="fill:#3A3847;" d="M492,452H12c-6.617,0-12-5.383-12-12v-72c0-6.617,5.383-12,12-12h480c6.617,0,12,5.383,12,12v72
		C504,446.617,498.617,452,492,452z M12,364c-2.203,0-4,1.797-4,4v72c0,2.203,1.797,4,4,4h480c2.203,0,4-1.797,4-4v-72
		c0-2.203-1.797-4-4-4H12z"/>
	<path style="fill:#3A3847;" d="M484,356c-2.211,0-4-1.789-4-4V104c0-2.211,1.789-4,4-4s4,1.789,4,4v248
		C488,354.211,486.211,356,484,356z"/>
	<path style="fill:#3A3847;" d="M316,356c-2.211,0-4-1.789-4-4V200c0-2.211,1.789-4,4-4s4,1.789,4,4v152
		C320,354.211,318.211,356,316,356z"/>
	<path style="fill:#3A3847;" d="M484,108c-2.211,0-4-1.789-4-4c0-15.438-12.563-28-28-28c-2.211,0-4-1.789-4-4s1.789-4,4-4
		c19.852,0,36,16.148,36,36C488,106.211,486.211,108,484,108z"/>
	<path style="fill:#3A3847;" d="M452,76H60c-2.211,0-4-1.789-4-4s1.789-4,4-4h392c2.211,0,4,1.789,4,4S454.211,76,452,76z"/>
	<path style="fill:#3A3847;" d="M316,204c-2.211,0-4-1.789-4-4c0-6.727-5.273-12-12-12c-2.211,0-4-1.789-4-4s1.789-4,4-4
		c11.031,0,20,8.969,20,20C320,202.211,318.211,204,316,204z"/>
	<path style="fill:#3A3847;" d="M44,236c-2.211,0-4-1.789-4-4V88c0-2.211,1.789-4,4-4s4,1.789,4,4v144C48,234.211,46.211,236,44,236
		z"/>
	<path style="fill:#3A3847;" d="M300,188h-56c-2.211,0-4-1.789-4-4s1.789-4,4-4h56c2.211,0,4,1.789,4,4S302.211,188,300,188z"/>
	<path style="fill:#3A3847;" d="M164,252H60c-2.211,0-4-1.789-4-4s1.789-4,4-4h104c2.211,0,4,1.789,4,4S166.211,252,164,252z"/>
	<path style="fill:#3A3847;" d="M164,252c-2.211,0-4-1.789-4-4s1.789-4,4-4c4.781,0,14.961-11.922,23.938-22.445
		C203.742,203.039,223.406,180,244,180c2.211,0,4,1.789,4,4s-1.789,4-4,4c-16.898,0-35.242,21.484-49.977,38.75
		C181.516,241.406,172.469,252,164,252z"/>
	<path style="fill:#3A3847;" d="M60,252c-11.031,0-20-8.969-20-20c0-2.211,1.789-4,4-4s4,1.789,4,4c0,6.727,5.273,12,12,12
		c2.211,0,4,1.789,4,4S62.211,252,60,252z"/>
	<path style="fill:#3A3847;" d="M44,92c-2.211,0-4-1.789-4-4c0-11.031,8.969-20,20-20c2.211,0,4,1.789,4,4s-1.789,4-4,4
		c-6.727,0-12,5.273-12,12C48,90.211,46.211,92,44,92z"/>
	<path style="fill:#3A3847;" d="M148,244c-2.211,0-4-1.789-4-4V80c0-2.211,1.789-4,4-4s4,1.789,4,4v160
		C152,242.211,150.211,244,148,244z"/>
	<path style="fill:#3A3847;" d="M132,244c-2.211,0-4-1.789-4-4V80c0-2.211,1.789-4,4-4s4,1.789,4,4v160
		C136,242.211,134.211,244,132,244z"/>
	<path style="fill:#3A3847;" d="M124,340c-2.211,0-4-1.789-4-4v-80c0-2.211,1.789-4,4-4s4,1.789,4,4v80
		C128,338.211,126.211,340,124,340z"/>
	<path style="fill:#3A3847;" d="M108,332c-1.023,0-2.047-0.391-2.828-1.172l-8-8c-1.563-1.563-1.563-4.094,0-5.656
		s4.094-1.563,5.656,0l8,8c1.563,1.563,1.563,4.094,0,5.656C110.047,331.609,109.023,332,108,332z"/>
	<path style="fill:#3A3847;" d="M140,332h-32c-2.211,0-4-1.789-4-4s1.789-4,4-4h32c2.211,0,4,1.789,4,4S142.211,332,140,332z"/>
	<path style="fill:#3A3847;" d="M140,332c-1.023,0-2.047-0.391-2.828-1.172c-1.563-1.563-1.563-4.094,0-5.656l8-8
		c1.563-1.563,4.094-1.563,5.656,0s1.563,4.094,0,5.656l-8,8C142.047,331.609,141.023,332,140,332z"/>
	<path style="fill:#3A3847;" d="M180,360H68c-2.211,0-4-1.789-4-4s1.789-4,4-4h112c2.211,0,4,1.789,4,4S182.211,360,180,360z"/>
	<path style="fill:#3A3847;" d="M92,268c-2.211,0-4-1.789-4-4v-8c0-2.211,1.789-4,4-4s4,1.789,4,4v8C96,266.211,94.211,268,92,268z"
		/>
	<path style="fill:#3A3847;" d="M116,268H92c-2.211,0-4-1.789-4-4s1.789-4,4-4h24c2.211,0,4,1.789,4,4S118.211,268,116,268z"/>
	<path style="fill:#3A3847;" d="M148,284h-24c-2.211,0-4-1.789-4-4s1.789-4,4-4h24c2.211,0,4,1.789,4,4S150.211,284,148,284z"/>
	<path style="fill:#3A3847;" d="M148,292c-2.211,0-4-1.789-4-4v-16c0-2.211,1.789-4,4-4s4,1.789,4,4v16
		C152,290.211,150.211,292,148,292z"/>
	<path style="fill:#3A3847;" d="M292,444c-2.211,0-4-1.789-4-4v-80c0-2.211,1.789-4,4-4s4,1.789,4,4v80
		C296,442.211,294.211,444,292,444z"/>
	<path style="fill:#3A3847;" d="M44,468c-6.617,0-12-5.383-12-12c0-2.211,1.789-4,4-4s4,1.789,4,4c0,2.203,1.797,4,4,4s4-1.797,4-4
		c0-2.211,1.789-4,4-4s4,1.789,4,4C56,462.617,50.617,468,44,468z"/>
	<path style="fill:#3A3847;" d="M460,468c-6.617,0-12-5.383-12-12c0-2.211,1.789-4,4-4s4,1.789,4,4c0,2.203,1.797,4,4,4s4-1.797,4-4
		c0-2.211,1.789-4,4-4s4,1.789,4,4C472,462.617,466.617,468,460,468z"/>
	<path style="fill:#3A3847;" d="M116,156H60c-2.211,0-4-1.789-4-4s1.789-4,4-4h56c2.211,0,4,1.789,4,4S118.211,156,116,156z"/>
	<path style="fill:#3A3847;" d="M148,68c-2.211,0-4-1.789-4-4v-8c0-2.211,1.789-4,4-4s4,1.789,4,4v8C152,66.211,150.211,68,148,68z"
		/>
	<path style="fill:#3A3847;" d="M164,60h-16c-2.211,0-4-1.789-4-4s1.789-4,4-4h16c2.211,0,4,1.789,4,4S166.211,60,164,60z"/>
	<path style="fill:#3A3847;" d="M164,68c-2.211,0-4-1.789-4-4v-8c0-2.211,1.789-4,4-4s4,1.789,4,4v8C168,66.211,166.211,68,164,68z"
		/>
	<path style="fill:#3A3847;" d="M372,68c-2.211,0-4-1.789-4-4V52h-64v12c0,2.211-1.789,4-4,4s-4-1.789-4-4V48c0-2.211,1.789-4,4-4
		h72c2.211,0,4,1.789,4,4v16C376,66.211,374.211,68,372,68z"/>
	<path style="fill:#3A3847;" d="M316,68c-0.602,0-1.211-0.133-1.789-0.422c-1.977-0.992-2.773-3.391-1.789-5.367l8-16
		c1-1.977,3.391-2.766,5.367-1.789c1.977,0.992,2.773,3.391,1.789,5.367l-8,16C318.875,67.188,317.461,68,316,68z"/>
	<path style="fill:#3A3847;" d="M332,68c-0.602,0-1.211-0.133-1.789-0.422c-1.977-0.992-2.773-3.391-1.789-5.367l8-16
		c0.992-1.977,3.398-2.766,5.367-1.789c1.977,0.992,2.773,3.391,1.789,5.367l-8,16C334.875,67.188,333.461,68,332,68z"/>
	<path style="fill:#3A3847;" d="M348,68c-0.602,0-1.211-0.133-1.789-0.422c-1.977-0.992-2.773-3.391-1.789-5.367l8-16
		c0.992-1.977,3.391-2.766,5.367-1.789c1.977,0.992,2.773,3.391,1.789,5.367l-8,16C350.875,67.188,349.461,68,348,68z"/>
	<path style="fill:#3A3847;" d="M412,76c-2.211,0-4-1.789-4-4V48c0-2.211,1.789-4,4-4s4,1.789,4,4v24C416,74.211,414.211,76,412,76z
		"/>
	<path style="fill:#3A3847;" d="M444,60h-16c-2.211,0-4-1.789-4-4s1.789-4,4-4h16c2.211,0,4,1.789,4,4S446.211,60,444,60z"/>
	<path style="fill:#3A3847;" d="M436,76c-2.211,0-4-1.789-4-4V56c0-2.211,1.789-4,4-4s4,1.789,4,4v16C440,74.211,438.211,76,436,76z
		"/>
	<path style="fill:#3A3847;" d="M500,124h-8c-2.211,0-4-1.789-4-4s1.789-4,4-4h8c2.211,0,4,1.789,4,4S502.211,124,500,124z"/>
	<path style="fill:#3A3847;" d="M500,188c-2.211,0-4-1.789-4-4v-64c0-2.211,1.789-4,4-4s4,1.789,4,4v64
		C504,186.211,502.211,188,500,188z"/>
	<path style="fill:#3A3847;" d="M500,188h-8c-2.211,0-4-1.789-4-4s1.789-4,4-4h8c2.211,0,4,1.789,4,4S502.211,188,500,188z"/>
	<path style="fill:#3A3847;" d="M508,212h-16c-2.211,0-4-1.789-4-4s1.789-4,4-4h16c2.211,0,4,1.789,4,4S510.211,212,508,212z"/>
	<path style="fill:#3A3847;" d="M508,252c-2.211,0-4-1.789-4-4v-40c0-2.211,1.789-4,4-4s4,1.789,4,4v40
		C512,250.211,510.211,252,508,252z"/>
	<path style="fill:#3A3847;" d="M508,252h-16c-2.211,0-4-1.789-4-4s1.789-4,4-4h16c2.211,0,4,1.789,4,4S510.211,252,508,252z"/>
	<path style="fill:#3A3847;" d="M436,324c-2.211,0-4-1.789-4-4v-24c0-2.211,1.789-4,4-4s4,1.789,4,4v24
		C440,322.211,438.211,324,436,324z"/>
	<path style="fill:#3A3847;" d="M436,300h-72c-2.211,0-4-1.789-4-4s1.789-4,4-4h72c2.211,0,4,1.789,4,4S438.211,300,436,300z"/>
	<path style="fill:#3A3847;" d="M364,324c-2.211,0-4-1.789-4-4v-24c0-2.211,1.789-4,4-4s4,1.789,4,4v24
		C368,322.211,366.211,324,364,324z"/>
	<path style="fill:#3A3847;" d="M396,220c-24.258,0-44-19.742-44-44s19.742-44,44-44s44,19.742,44,44S420.258,220,396,220z M396,140
		c-19.852,0-36,16.148-36,36s16.148,36,36,36s36-16.148,36-36S415.852,140,396,140z"/>
	<path style="fill:#3A3847;" d="M396,124c-2.211,0-4-1.789-4-4v-8c0-2.211,1.789-4,4-4s4,1.789,4,4v8
		C400,122.211,398.211,124,396,124z"/>
	<path style="fill:#3A3847;" d="M272,148c-23.852,0-48-6.867-48-20c0-26.266,96-26.266,96,0C320,141.133,295.852,148,272,148z
		 M272,116c-24.047,0-40,7.219-40,12c0,4.781,15.953,12,40,12s40-7.219,40-12S296.047,116,272,116z"/>
	<path style="fill:#3A3847;" d="M292,132h-40c-2.211,0-4-1.789-4-4s1.789-4,4-4h40c2.211,0,4,1.789,4,4S294.211,132,292,132z"/>
</g>
<g>
</g>
<g>
</g>
<g>
</g>
<g>
</g>
<g>
</g>
<g>
</g>
<g>
</g>
<g>
</g>
<g>
</g>
<g>
</g>
<g>
</g>
<g>
</g>
<g>
</g>
<g>
</g>
<g>
</g>
</svg>
